{
  "version": "3.0.0",
  "type": "draft_content",
  "platform": "windows",
  "create_time": 1753393889195982,
  "update_time": 1753393889195982,
  "created_time": 1753393889195,
  "last_modified": 1753393889195,
  "app_version": "剪映专业版 3.0.0",
  "id": "1bd0a86e-d71b-4330-b43a-34d8b071a913",
  "project_id": "1bd0a86e-d71b-4330-b43a-34d8b071a913",
  "draft_id": "1bd0a86e-d71b-4330-b43a-34d8b071a913",
  "draft_name": "VisionAI混剪项目",
  "canvas_config": {
    "height": 1080,
    "width": 1920,
    "duration": 16000,
    "fps": 30,
    "ratio": "16:9"
  },
  "tracks": [
    {
      "id": "747b380c-e747-48ca-bfe6-84f5700edc09",
      "type": "video",
      "attribute": 0,
      "flag": 0,
      "segments": [
        {
          "id": "226445f9-2603-46dc-bc29-f5e217f1c8be",
          "type": "video",
          "material_id": "video_material_0",
          "track_render_index": 0,
          "source_timerange": {
            "start": 1000,
            "duration": 4000
          },
          "target_timerange": {
            "start": 0,
            "duration": 4000
          },
          "extra_material_refs": [],
          "uniform_scale": {
            "on": true,
            "value": 1.0
          },
          "transform": {
            "x": 0.0,
            "y": 0.0,
            "width": 1.0,
            "height": 1.0
          },
          "visible": true,
          "volume": 1.0
        },
        {
          "id": "c0acbe01-7c4c-46b6-bea8-3377e6933ffa",
          "type": "video",
          "material_id": "video_material_1",
          "track_render_index": 0,
          "source_timerange": {
            "start": 16000,
            "duration": 4000
          },
          "target_timerange": {
            "start": 4000,
            "duration": 4000
          },
          "extra_material_refs": [],
          "uniform_scale": {
            "on": true,
            "value": 1.0
          },
          "transform": {
            "x": 0.0,
            "y": 0.0,
            "width": 1.0,
            "height": 1.0
          },
          "visible": true,
          "volume": 1.0
        },
        {
          "id": "0fc67344-b545-48eb-8342-d28d80acd77f",
          "type": "video",
          "material_id": "video_material_2",
          "track_render_index": 0,
          "source_timerange": {
            "start": 21000,
            "duration": 4000
          },
          "target_timerange": {
            "start": 8000,
            "duration": 4000
          },
          "extra_material_refs": [],
          "uniform_scale": {
            "on": true,
            "value": 1.0
          },
          "transform": {
            "x": 0.0,
            "y": 0.0,
            "width": 1.0,
            "height": 1.0
          },
          "visible": true,
          "volume": 1.0
        },
        {
          "id": "7060b551-ab8d-4e16-bc29-4e22695258ee",
          "type": "video",
          "material_id": "video_material_3",
          "track_render_index": 0,
          "source_timerange": {
            "start": 31000,
            "duration": 4000
          },
          "target_timerange": {
            "start": 12000,
            "duration": 4000
          },
          "extra_material_refs": [],
          "uniform_scale": {
            "on": true,
            "value": 1.0
          },
          "transform": {
            "x": 0.0,
            "y": 0.0,
            "width": 1.0,
            "height": 1.0
          },
          "visible": true,
          "volume": 1.0
        }
      ]
    },
    {
      "id": "28b058fa-6fbf-4d24-a814-a25f7379495b",
      "type": "audio",
      "attribute": 0,
      "flag": 0,
      "segments": [
        {
          "id": "26f8b6dc-3af4-476d-8b12-ab3084e978d3",
          "type": "audio",
          "material_id": "audio_material_0",
          "track_render_index": 0,
          "source_timerange": {
            "start": 1000,
            "duration": 4000
          },
          "target_timerange": {
            "start": 0,
            "duration": 4000
          },
          "extra_material_refs": [],
          "volume": 1.0,
          "speed": 1.0,
          "visible": true
        },
        {
          "id": "b7345b98-3191-47ff-aa76-09c8be73d6d1",
          "type": "audio",
          "material_id": "audio_material_1",
          "track_render_index": 0,
          "source_timerange": {
            "start": 16000,
            "duration": 4000
          },
          "target_timerange": {
            "start": 4000,
            "duration": 4000
          },
          "extra_material_refs": [],
          "volume": 1.0,
          "speed": 1.0,
          "visible": true
        },
        {
          "id": "457414af-bd44-4209-b587-8c0d05c87bef",
          "type": "audio",
          "material_id": "audio_material_2",
          "track_render_index": 0,
          "source_timerange": {
            "start": 21000,
            "duration": 4000
          },
          "target_timerange": {
            "start": 8000,
            "duration": 4000
          },
          "extra_material_refs": [],
          "volume": 1.0,
          "speed": 1.0,
          "visible": true
        },
        {
          "id": "928d0a70-6bd7-4728-a1cd-81ff614e9203",
          "type": "audio",
          "material_id": "audio_material_3",
          "track_render_index": 0,
          "source_timerange": {
            "start": 31000,
            "duration": 4000
          },
          "target_timerange": {
            "start": 12000,
            "duration": 4000
          },
          "extra_material_refs": [],
          "volume": 1.0,
          "speed": 1.0,
          "visible": true
        }
      ]
    },
    {
      "id": "9e147caa-a212-4ff9-9a7a-da30fdf09195",
      "type": "text",
      "attribute": 0,
      "flag": 0,
      "segments": [
        {
          "id": "2a9b9a0e-0745-4919-8620-092d738f430b",
          "type": "text",
          "material_id": "text_material_0",
          "track_render_index": 0,
          "source_timerange": {
            "start": 0,
            "duration": 4000
          },
          "target_timerange": {
            "start": 0,
            "duration": 4000
          },
          "extra_material_refs": [],
          "content": "小雨站在咖啡厅门口，犹豫着要不要进去",
          "style": {
            "font_size": 24,
            "font_color": "#FFFFFF",
            "background_color": "#00000080",
            "alignment": "center"
          },
          "visible": true
        },
        {
          "id": "02169373-9af0-4701-96a7-86161ef711c8",
          "type": "text",
          "material_id": "text_material_1",
          "track_render_index": 0,
          "source_timerange": {
            "start": 0,
            "duration": 4000
          },
          "target_timerange": {
            "start": 4000,
            "duration": 4000
          },
          "extra_material_refs": [],
          "content": "现在李明要结婚了，新娘不是她",
          "style": {
            "font_size": 24,
            "font_color": "#FFFFFF",
            "background_color": "#00000080",
            "alignment": "center"
          },
          "visible": true
        },
        {
          "id": "147ae804-17ab-41f6-9107-a5180c3d9589",
          "type": "text",
          "material_id": "text_material_2",
          "track_render_index": 0,
          "source_timerange": {
            "start": 0,
            "duration": 4000
          },
          "target_timerange": {
            "start": 8000,
            "duration": 4000
          },
          "extra_material_refs": [],
          "content": "小雨深吸一口气，推开了咖啡厅的门",
          "style": {
            "font_size": 24,
            "font_color": "#FFFFFF",
            "background_color": "#00000080",
            "alignment": "center"
          },
          "visible": true
        },
        {
          "id": "4393f187-995e-4e55-9fe4-9e36e2d2fbdb",
          "type": "text",
          "material_id": "text_material_3",
          "track_render_index": 0,
          "source_timerange": {
            "start": 0,
            "duration": 4000
          },
          "target_timerange": {
            "start": 12000,
            "duration": 4000
          },
          "extra_material_refs": [],
          "content": "李明，你来了。他轻声说道",
          "style": {
            "font_size": 24,
            "font_color": "#FFFFFF",
            "background_color": "#00000080",
            "alignment": "center"
          },
          "visible": true
        }
      ]
    }
  ],
  "materials": {
    "videos": [
      {
        "id": "video_material_0",
        "type": "video",
        "path": "",
        "duration": 4000,
        "width": 1920,
        "height": 1080,
        "fps": 30,
        "format": "mp4",
        "codec": "h264",
        "bitrate": "2000k",
        "create_time": 1753393889195982,
        "file_size": 0
      },
      {
        "id": "video_material_1",
        "type": "video",
        "path": "",
        "duration": 4000,
        "width": 1920,
        "height": 1080,
        "fps": 30,
        "format": "mp4",
        "codec": "h264",
        "bitrate": "2000k",
        "create_time": 1753393889195982,
        "file_size": 0
      },
      {
        "id": "video_material_2",
        "type": "video",
        "path": "",
        "duration": 4000,
        "width": 1920,
        "height": 1080,
        "fps": 30,
        "format": "mp4",
        "codec": "h264",
        "bitrate": "2000k",
        "create_time": 1753393889195982,
        "file_size": 0
      },
      {
        "id": "video_material_3",
        "type": "video",
        "path": "",
        "duration": 4000,
        "width": 1920,
        "height": 1080,
        "fps": 30,
        "format": "mp4",
        "codec": "h264",
        "bitrate": "2000k",
        "create_time": 1753393889195982,
        "file_size": 0
      }
    ],
    "audios": [
      {
        "id": "audio_material_0",
        "type": "audio",
        "path": "",
        "duration": 4000,
        "sample_rate": 44100,
        "channels": 2,
        "format": "aac",
        "codec": "aac",
        "bitrate": "128k",
        "create_time": 1753393889195982
      },
      {
        "id": "audio_material_1",
        "type": "audio",
        "path": "",
        "duration": 4000,
        "sample_rate": 44100,
        "channels": 2,
        "format": "aac",
        "codec": "aac",
        "bitrate": "128k",
        "create_time": 1753393889195982
      },
      {
        "id": "audio_material_2",
        "type": "audio",
        "path": "",
        "duration": 4000,
        "sample_rate": 44100,
        "channels": 2,
        "format": "aac",
        "codec": "aac",
        "bitrate": "128k",
        "create_time": 1753393889195982
      },
      {
        "id": "audio_material_3",
        "type": "audio",
        "path": "",
        "duration": 4000,
        "sample_rate": 44100,
        "channels": 2,
        "format": "aac",
        "codec": "aac",
        "bitrate": "128k",
        "create_time": 1753393889195982
      }
    ],
    "texts": [
      {
        "id": "text_material_0",
        "type": "text",
        "content": "小雨站在咖啡厅门口，犹豫着要不要进去",
        "font_family": "Microsoft YaHei",
        "font_size": 24,
        "font_color": "#FFFFFF",
        "background_color": "#00000080",
        "alignment": "center",
        "bold": false,
        "italic": false,
        "underline": false,
        "create_time": 1753393889195982
      },
      {
        "id": "text_material_1",
        "type": "text",
        "content": "现在李明要结婚了，新娘不是她",
        "font_family": "Microsoft YaHei",
        "font_size": 24,
        "font_color": "#FFFFFF",
        "background_color": "#00000080",
        "alignment": "center",
        "bold": false,
        "italic": false,
        "underline": false,
        "create_time": 1753393889195982
      },
      {
        "id": "text_material_2",
        "type": "text",
        "content": "小雨深吸一口气，推开了咖啡厅的门",
        "font_family": "Microsoft YaHei",
        "font_size": 24,
        "font_color": "#FFFFFF",
        "background_color": "#00000080",
        "alignment": "center",
        "bold": false,
        "italic": false,
        "underline": false,
        "create_time": 1753393889195982
      },
      {
        "id": "text_material_3",
        "type": "text",
        "content": "李明，你来了。他轻声说道",
        "font_family": "Microsoft YaHei",
        "font_size": 24,
        "font_color": "#FFFFFF",
        "background_color": "#00000080",
        "alignment": "center",
        "bold": false,
        "italic": false,
        "underline": false,
        "create_time": 1753393889195982
      }
    ],
    "effects": [],
    "stickers": [],
    "images": [],
    "sounds": []
  },
  "extra_info": {
    "export_range": {
      "start": 0,
      "end": 16000
    },
    "fps": 30,
    "audio_sample_rate": 44100,
    "video_codec": "h264",
    "audio_codec": "aac"
  },
  "keyframes": [],
  "relations": []
}