{
  "version": "3.0.0",
  "type": "draft_content",
  "platform": "windows",
  "create_time": 1753697738143814,
  "update_time": 1753697738230952,
  "created_time": 1753697738143,
  "last_modified": 1753697738143,
  "app_version": "剪映专业版 3.0.0",
  "id": "9021a9b2-893f-41fe-aa52-dfceb045bde3",
  "project_id": "9021a9b2-893f-41fe-aa52-dfceb045bde3",
  "draft_id": "9021a9b2-893f-41fe-aa52-dfceb045bde3",
  "draft_name": "VisionAI混剪项目",
  "project_name": "VisionAI爆款短剧混剪",
  "timeline": {
    "duration": 0,
    "tracks": [],
    "fps": 30,
    "resolution": "1920x1080"
  },
  "export_settings": {
    "resolution": "1920x1080",
    "fps": 30,
    "bitrate": "8000k",
    "format": "mp4",
    "quality": "high"
  },
  "canvas_config": {
    "height": 1080,
    "width": 1920,
    "duration": 10000,
    "fps": 30,
    "ratio": "16:9"
  },
  "tracks": [
    {
      "id": "ff6b3ded-966c-4e5e-bd69-785de1a9e91d",
      "type": "video",
      "attribute": 0,
      "flag": 0,
      "segments": [
        {
          "id": "91ca5cd3-5a02-4dba-b453-3bbcfe0ecf41",
          "type": "video",
          "material_id": "video_material_0",
          "track_render_index": 0,
          "source_timerange": {
            "start": 0,
            "duration": 2000
          },
          "target_timerange": {
            "start": 0,
            "duration": 2000
          },
          "extra_material_refs": [],
          "uniform_scale": {
            "on": true,
            "value": 1.0
          },
          "transform": {
            "x": 0.0,
            "y": 0.0,
            "width": 1.0,
            "height": 1.0
          },
          "visible": true,
          "volume": 1.0
        },
        {
          "id": "12e0beb8-eaa1-436c-8963-b9ea61062c75",
          "type": "video",
          "material_id": "video_material_1",
          "track_render_index": 0,
          "source_timerange": {
            "start": 2000,
            "duration": 2000
          },
          "target_timerange": {
            "start": 2000,
            "duration": 2000
          },
          "extra_material_refs": [],
          "uniform_scale": {
            "on": true,
            "value": 1.0
          },
          "transform": {
            "x": 0.0,
            "y": 0.0,
            "width": 1.0,
            "height": 1.0
          },
          "visible": true,
          "volume": 1.0
        },
        {
          "id": "ca35dcef-12d4-40a0-a27a-f22f221a5968",
          "type": "video",
          "material_id": "video_material_2",
          "track_render_index": 0,
          "source_timerange": {
            "start": 4000,
            "duration": 2000
          },
          "target_timerange": {
            "start": 4000,
            "duration": 2000
          },
          "extra_material_refs": [],
          "uniform_scale": {
            "on": true,
            "value": 1.0
          },
          "transform": {
            "x": 0.0,
            "y": 0.0,
            "width": 1.0,
            "height": 1.0
          },
          "visible": true,
          "volume": 1.0
        },
        {
          "id": "1c8f4b3f-c84c-4764-997a-4885fd5d341c",
          "type": "video",
          "material_id": "video_material_3",
          "track_render_index": 0,
          "source_timerange": {
            "start": 6000,
            "duration": 2000
          },
          "target_timerange": {
            "start": 6000,
            "duration": 2000
          },
          "extra_material_refs": [],
          "uniform_scale": {
            "on": true,
            "value": 1.0
          },
          "transform": {
            "x": 0.0,
            "y": 0.0,
            "width": 1.0,
            "height": 1.0
          },
          "visible": true,
          "volume": 1.0
        },
        {
          "id": "bd07cd0e-1d30-48f4-84e6-ab2405798c96",
          "type": "video",
          "material_id": "video_material_4",
          "track_render_index": 0,
          "source_timerange": {
            "start": 8000,
            "duration": 2000
          },
          "target_timerange": {
            "start": 8000,
            "duration": 2000
          },
          "extra_material_refs": [],
          "uniform_scale": {
            "on": true,
            "value": 1.0
          },
          "transform": {
            "x": 0.0,
            "y": 0.0,
            "width": 1.0,
            "height": 1.0
          },
          "visible": true,
          "volume": 1.0
        }
      ]
    },
    {
      "id": "5acb71d9-ea81-44f4-a31f-213fcea7837c",
      "type": "audio",
      "attribute": 0,
      "flag": 0,
      "segments": [
        {
          "id": "1fd1bb95-a4ec-4302-b469-e221e2d44629",
          "type": "audio",
          "material_id": "audio_material_0",
          "track_render_index": 0,
          "source_timerange": {
            "start": 0,
            "duration": 2000
          },
          "target_timerange": {
            "start": 0,
            "duration": 2000
          },
          "extra_material_refs": [],
          "volume": 1.0,
          "speed": 1.0,
          "visible": true
        },
        {
          "id": "6395963d-e647-4906-b363-7881e8c2fb53",
          "type": "audio",
          "material_id": "audio_material_1",
          "track_render_index": 0,
          "source_timerange": {
            "start": 2000,
            "duration": 2000
          },
          "target_timerange": {
            "start": 2000,
            "duration": 2000
          },
          "extra_material_refs": [],
          "volume": 1.0,
          "speed": 1.0,
          "visible": true
        },
        {
          "id": "5088af66-8ec2-4291-96ba-e727d2c9767d",
          "type": "audio",
          "material_id": "audio_material_2",
          "track_render_index": 0,
          "source_timerange": {
            "start": 4000,
            "duration": 2000
          },
          "target_timerange": {
            "start": 4000,
            "duration": 2000
          },
          "extra_material_refs": [],
          "volume": 1.0,
          "speed": 1.0,
          "visible": true
        },
        {
          "id": "7dd8b053-a482-4a30-b3f8-4d1ce8cc501f",
          "type": "audio",
          "material_id": "audio_material_3",
          "track_render_index": 0,
          "source_timerange": {
            "start": 6000,
            "duration": 2000
          },
          "target_timerange": {
            "start": 6000,
            "duration": 2000
          },
          "extra_material_refs": [],
          "volume": 1.0,
          "speed": 1.0,
          "visible": true
        },
        {
          "id": "5f076ec1-bd23-4bcb-9bf9-55b62f124c9f",
          "type": "audio",
          "material_id": "audio_material_4",
          "track_render_index": 0,
          "source_timerange": {
            "start": 8000,
            "duration": 2000
          },
          "target_timerange": {
            "start": 8000,
            "duration": 2000
          },
          "extra_material_refs": [],
          "volume": 1.0,
          "speed": 1.0,
          "visible": true
        }
      ]
    },
    {
      "id": "4cdd5a4f-f357-468b-8107-69b95fe4f46b",
      "type": "text",
      "attribute": 0,
      "flag": 0,
      "segments": [
        {
          "id": "d787eb4b-d708-4c6e-9b25-67ae79130722",
          "type": "text",
          "material_id": "text_material_0",
          "track_render_index": 0,
          "source_timerange": {
            "start": 0,
            "duration": 2000
          },
          "target_timerange": {
            "start": 0,
            "duration": 2000
          },
          "extra_material_refs": [],
          "content": "字幕片段 1",
          "style": {
            "font_size": 24,
            "font_color": "#FFFFFF",
            "background_color": "#00000080",
            "alignment": "center"
          },
          "visible": true
        },
        {
          "id": "a464fec2-2725-48bc-9e94-919ee6583598",
          "type": "text",
          "material_id": "text_material_1",
          "track_render_index": 0,
          "source_timerange": {
            "start": 0,
            "duration": 2000
          },
          "target_timerange": {
            "start": 2000,
            "duration": 2000
          },
          "extra_material_refs": [],
          "content": "字幕片段 2",
          "style": {
            "font_size": 24,
            "font_color": "#FFFFFF",
            "background_color": "#00000080",
            "alignment": "center"
          },
          "visible": true
        },
        {
          "id": "d4aa539d-8a19-4593-89d4-3c5671a4c1a6",
          "type": "text",
          "material_id": "text_material_2",
          "track_render_index": 0,
          "source_timerange": {
            "start": 0,
            "duration": 2000
          },
          "target_timerange": {
            "start": 4000,
            "duration": 2000
          },
          "extra_material_refs": [],
          "content": "字幕片段 3",
          "style": {
            "font_size": 24,
            "font_color": "#FFFFFF",
            "background_color": "#00000080",
            "alignment": "center"
          },
          "visible": true
        },
        {
          "id": "1d98e549-cfe6-4e02-ba19-c8d714596663",
          "type": "text",
          "material_id": "text_material_3",
          "track_render_index": 0,
          "source_timerange": {
            "start": 0,
            "duration": 2000
          },
          "target_timerange": {
            "start": 6000,
            "duration": 2000
          },
          "extra_material_refs": [],
          "content": "字幕片段 4",
          "style": {
            "font_size": 24,
            "font_color": "#FFFFFF",
            "background_color": "#00000080",
            "alignment": "center"
          },
          "visible": true
        },
        {
          "id": "0a493d72-3746-4906-8592-955c23897ab1",
          "type": "text",
          "material_id": "text_material_4",
          "track_render_index": 0,
          "source_timerange": {
            "start": 0,
            "duration": 2000
          },
          "target_timerange": {
            "start": 8000,
            "duration": 2000
          },
          "extra_material_refs": [],
          "content": "字幕片段 5",
          "style": {
            "font_size": 24,
            "font_color": "#FFFFFF",
            "background_color": "#00000080",
            "alignment": "center"
          },
          "visible": true
        }
      ]
    }
  ],
  "materials": {
    "videos": [
      {
        "id": "video_material_0",
        "type": "video",
        "path": "data/test/realistic_drama.mp4",
        "duration": 2000,
        "width": 1920,
        "height": 1080,
        "fps": 30,
        "format": "mp4",
        "codec": "h264",
        "bitrate": "2000k",
        "create_time": 1753697738230952,
        "file_size": 0
      },
      {
        "id": "video_material_1",
        "type": "video",
        "path": "data/test/realistic_drama.mp4",
        "duration": 2000,
        "width": 1920,
        "height": 1080,
        "fps": 30,
        "format": "mp4",
        "codec": "h264",
        "bitrate": "2000k",
        "create_time": 1753697738230952,
        "file_size": 0
      },
      {
        "id": "video_material_2",
        "type": "video",
        "path": "data/test/realistic_drama.mp4",
        "duration": 2000,
        "width": 1920,
        "height": 1080,
        "fps": 30,
        "format": "mp4",
        "codec": "h264",
        "bitrate": "2000k",
        "create_time": 1753697738230952,
        "file_size": 0
      },
      {
        "id": "video_material_3",
        "type": "video",
        "path": "data/test/realistic_drama.mp4",
        "duration": 2000,
        "width": 1920,
        "height": 1080,
        "fps": 30,
        "format": "mp4",
        "codec": "h264",
        "bitrate": "2000k",
        "create_time": 1753697738230952,
        "file_size": 0
      },
      {
        "id": "video_material_4",
        "type": "video",
        "path": "data/test/realistic_drama.mp4",
        "duration": 2000,
        "width": 1920,
        "height": 1080,
        "fps": 30,
        "format": "mp4",
        "codec": "h264",
        "bitrate": "2000k",
        "create_time": 1753697738230952,
        "file_size": 0
      }
    ],
    "audios": [
      {
        "id": "audio_material_0",
        "type": "audio",
        "path": "data/test/realistic_drama.mp4",
        "duration": 2000,
        "sample_rate": 44100,
        "channels": 2,
        "format": "aac",
        "codec": "aac",
        "bitrate": "128k",
        "create_time": 1753697738230952
      },
      {
        "id": "audio_material_1",
        "type": "audio",
        "path": "data/test/realistic_drama.mp4",
        "duration": 2000,
        "sample_rate": 44100,
        "channels": 2,
        "format": "aac",
        "codec": "aac",
        "bitrate": "128k",
        "create_time": 1753697738230952
      },
      {
        "id": "audio_material_2",
        "type": "audio",
        "path": "data/test/realistic_drama.mp4",
        "duration": 2000,
        "sample_rate": 44100,
        "channels": 2,
        "format": "aac",
        "codec": "aac",
        "bitrate": "128k",
        "create_time": 1753697738230952
      },
      {
        "id": "audio_material_3",
        "type": "audio",
        "path": "data/test/realistic_drama.mp4",
        "duration": 2000,
        "sample_rate": 44100,
        "channels": 2,
        "format": "aac",
        "codec": "aac",
        "bitrate": "128k",
        "create_time": 1753697738230952
      },
      {
        "id": "audio_material_4",
        "type": "audio",
        "path": "data/test/realistic_drama.mp4",
        "duration": 2000,
        "sample_rate": 44100,
        "channels": 2,
        "format": "aac",
        "codec": "aac",
        "bitrate": "128k",
        "create_time": 1753697738230952
      }
    ],
    "texts": [
      {
        "id": "text_material_0",
        "type": "text",
        "content": "字幕片段 1",
        "font_family": "Microsoft YaHei",
        "font_size": 24,
        "font_color": "#FFFFFF",
        "background_color": "#00000080",
        "alignment": "center",
        "bold": false,
        "italic": false,
        "underline": false,
        "create_time": 1753697738230952
      },
      {
        "id": "text_material_1",
        "type": "text",
        "content": "字幕片段 2",
        "font_family": "Microsoft YaHei",
        "font_size": 24,
        "font_color": "#FFFFFF",
        "background_color": "#00000080",
        "alignment": "center",
        "bold": false,
        "italic": false,
        "underline": false,
        "create_time": 1753697738230952
      },
      {
        "id": "text_material_2",
        "type": "text",
        "content": "字幕片段 3",
        "font_family": "Microsoft YaHei",
        "font_size": 24,
        "font_color": "#FFFFFF",
        "background_color": "#00000080",
        "alignment": "center",
        "bold": false,
        "italic": false,
        "underline": false,
        "create_time": 1753697738230952
      },
      {
        "id": "text_material_3",
        "type": "text",
        "content": "字幕片段 4",
        "font_family": "Microsoft YaHei",
        "font_size": 24,
        "font_color": "#FFFFFF",
        "background_color": "#00000080",
        "alignment": "center",
        "bold": false,
        "italic": false,
        "underline": false,
        "create_time": 1753697738230952
      },
      {
        "id": "text_material_4",
        "type": "text",
        "content": "字幕片段 5",
        "font_family": "Microsoft YaHei",
        "font_size": 24,
        "font_color": "#FFFFFF",
        "background_color": "#00000080",
        "alignment": "center",
        "bold": false,
        "italic": false,
        "underline": false,
        "create_time": 1753697738230952
      }
    ],
    "effects": [],
    "stickers": [],
    "images": [],
    "sounds": []
  },
  "extra_info": {
    "export_range": {
      "start": 0,
      "end": 10000
    },
    "fps": 30,
    "audio_sample_rate": 44100,
    "video_codec": "h264",
    "audio_codec": "aac"
  },
  "keyframes": [],
  "relations": []
}